<?xml version="1.0" standalone="no"?>
<!DOCTYPE svg PUBLIC "-//W3C//DTD SVG 20010904//EN"
 "http://www.w3.org/TR/2001/REC-SVG-20010904/DTD/svg10.dtd">
<svg version="1.0" xmlns="http://www.w3.org/2000/svg"
 width="818.000000pt" height="198.000000pt" viewBox="0 0 818.000000 198.000000"
 preserveAspectRatio="xMidYMid meet">

<g transform="translate(0.000000,198.000000) scale(0.100000,-0.100000)"
fill="#000000" stroke="none">
<path d="M4132 1588 c-18 -18 -14 -56 7 -68 31 -16 51 -12 63 15 9 21 8 28 -7
45 -20 23 -45 26 -63 8z"/>
<path d="M3974 1576 c-9 -24 -1 -48 22 -63 18 -12 24 -11 43 4 19 16 21 22 12
46 -8 21 -17 27 -41 27 -17 0 -33 -6 -36 -14z"/>
<path d="M3240 1541 c-47 -10 -152 -40 -233 -65 -145 -46 -148 -48 -145 -74 2
-22 9 -27 33 -30 17 -1 57 -6 90 -11 33 -5 97 -10 143 -10 l83 -1 -3 -47 -3
-47 -113 -26 c-62 -15 -118 -32 -124 -38 -11 -11 -2 -52 11 -52 5 0 60 13 122
30 64 17 115 26 117 20 2 -5 15 -33 30 -62 37 -74 86 -98 197 -98 102 0 175
21 224 66 43 38 71 44 71 15 0 -11 11 -32 23 -47 20 -22 32 -27 69 -27 25 1
67 11 94 22 44 20 48 20 65 5 27 -24 89 -13 141 25 40 29 44 30 55 14 25 -34
15 -50 -52 -81 -120 -57 -184 -128 -170 -191 13 -61 77 -91 192 -91 154 0 200
56 175 213 -8 53 -7 59 11 68 13 8 22 8 30 0 18 -18 62 -13 91 10 25 20 28 20
60 5 49 -23 104 -20 150 8 30 18 49 22 82 18 34 -4 52 1 89 22 l45 27 73 -25
c165 -57 278 -57 647 -3 219 33 235 39 212 75 -7 10 -44 7 -188 -14 -130 -20
-218 -28 -319 -28 -159 0 -220 14 -322 70 -73 40 -106 42 -168 10 -33 -18 -55
-23 -80 -19 -26 4 -47 -2 -91 -27 -49 -28 -60 -30 -84 -20 -18 7 -31 23 -37
43 -6 24 -15 33 -35 35 -43 5 -115 -32 -138 -71 -34 -57 -55 -54 -80 11 -11
31 -28 65 -37 74 -25 28 -75 22 -131 -16 l-50 -34 -6 24 c-9 33 -38 47 -70 32
-14 -6 -26 -15 -26 -19 0 -12 -72 -59 -90 -59 -12 0 -16 10 -16 36 0 53 -19
63 -96 51 -43 -6 -68 -6 -80 2 -22 14 -83 14 -109 1 -23 -13 -25 -47 -4 -77
15 -21 14 -22 -22 -32 -112 -31 -233 9 -233 78 0 4 33 14 72 21 130 23 288 85
288 113 0 41 -16 44 -295 56 -148 7 -286 15 -305 19 -33 7 -32 9 40 24 41 9
125 24 185 33 122 20 143 31 126 64 -15 27 -61 27 -181 2z m210 -200 l65 -6
-101 -27 c-55 -16 -103 -28 -106 -28 -3 0 -8 16 -10 35 l-4 35 46 -1 c25 -1
74 -4 110 -8z m790 -437 c0 -23 -6 -46 -12 -51 -33 -26 -158 -24 -158 2 0 14
51 56 113 90 48 28 57 22 57 -41z"/>
<path d="M3840 1485 c-17 -21 -5 -49 40 -89 59 -53 116 -78 191 -84 57 -4 75
-1 127 23 66 30 76 42 62 80 -11 29 -45 33 -89 10 -75 -38 -185 -18 -246 45
-31 32 -65 39 -85 15z"/>
</g>
</svg>
